<svg width="32" height="32" fill="none" xmlns="http://www.w3.org/2000/svg"><path d="M26.396 23.465c0-6.838-.604-19.141-10.196-19.265C6.92 4.08 4.92 16.463 5.57 23.415c.372.523.783 1.017 1.227 1.478C9.104 27.28 15.911 27 15.911 27s7.6.008 9.968-2.862c.179-.218.352-.442.517-.674z" fill="#FF7800"/><path d="M14.18 6.39a3.23 3.23 0 014.747 1.284l7.469 15.792A12.733 12.733 0 0028.8 16.09c.05-7.07-5.641-12.84-12.711-12.89C9.019 3.15 3.249 8.84 3.2 15.91a12.73 12.73 0 002.37 7.504l.3-.066 4.873-1.075c.137-.03.21.155.09.227l-4.036 2.392a12.754 12.754 0 009.114 3.907c4.01.028 7.6-1.792 9.968-4.662l-12.216-12.86a3.23 3.23 0 01.517-4.888zm2.293 14.516l-7.865.682a1.389 1.389 0 11.199-2.737l7.684 1.81c.137.034.122.232-.018.245zm-3.64-6.916l9.536 7.714c.109.089.01.262-.122.212l-11.47-4.347a2.09 2.09 0 112.056-3.58z" fill="#FFF"/></svg>